<svg width="26" height="34" viewBox="0 0 26 34" fill="none" xmlns="http://www.w3.org/2000/svg">
<path d="M25 15.5C20.5 22.5 17.5 28 13 32C8.5 27 6 24.5 1 15.5C1 7.49187 6.37258 1 13 1C19.6274 1 25.5 9 25 15.5Z" fill="#671106"/>
<path fill-rule="evenodd" clip-rule="evenodd" d="M12.9521 32.9535C20.9202 24.0889 24.9042 17.4439 24.9042 13.0188C24.9042 6.38098 19.5531 1 12.9521 1C6.35115 1 1 6.38098 1 13.0188C1 17.4439 4.98404 24.0889 12.9521 32.9535Z" stroke="black" stroke-width="1.99202" stroke-linecap="round" stroke-linejoin="round"/>
<g clip-path="url(#clip0_419_284)">
<path d="M18 12.8333H17.4333L15.7667 14.5H17.3583L18.8333 16.1666H7.16667L8.65 14.5H10.3583L8.69167 12.8333H8L5.5 15.3333V18.6666C5.5 19.1087 5.67559 19.5326 5.98816 19.8452C6.30072 20.1577 6.72464 20.3333 7.16667 20.3333H18.8333C19.2754 20.3333 19.6993 20.1577 20.0118 19.8452C20.3244 19.5326 20.5 19.1087 20.5 18.6666V15.3333L18 12.8333ZM17.1667 8.62498L13.0417 12.75L10.0833 9.79998L14.2167 5.67498L17.1667 8.62498ZM13.6333 3.90831L8.325 9.21665C8.24775 9.29374 8.18646 9.38531 8.14464 9.48613C8.10282 9.58694 8.0813 9.69501 8.0813 9.80415C8.0813 9.91329 8.10282 10.0214 8.14464 10.1222C8.18646 10.223 8.24775 10.3146 8.325 10.3916L12.45 14.5C12.775 14.8416 13.3 14.8416 13.625 14.5L18.925 9.21665C19.0023 9.13955 19.0635 9.04798 19.1054 8.94717C19.1472 8.84635 19.1687 8.73829 19.1687 8.62915C19.1687 8.52001 19.1472 8.41194 19.1054 8.31113C19.0635 8.21031 19.0023 8.11874 18.925 8.04165L14.8 3.91665C14.7248 3.83798 14.6346 3.77522 14.5347 3.73209C14.4348 3.68895 14.3272 3.66633 14.2184 3.66555C14.1096 3.66477 14.0018 3.68586 13.9012 3.72756C13.8007 3.76926 13.7096 3.83073 13.6333 3.90831Z" fill="white"/>
</g>
<defs>
<clipPath id="clip0_419_284">
<rect width="20" height="20" fill="white" transform="translate(3 2)"/>
</clipPath>
</defs>
</svg>
